<?xml version="1.0" ?><svg viewBox="0 0 128 128" xmlns="http://www.w3.org/2000/svg"><defs><style>.cls-1{fill:#ffcf01;}.cls-2{fill:#4ec3c7;}.cls-3{fill:#a64d2c;}</style></defs><title/><g data-name="02 Bitcoin Chipset" id="_02_Bitcoin_Chipset"><path class="cls-1" d="M68.3,17.4a3,3,0,0,1-3,3c-4,0-4-6,0-6A3,3,0,0,1,68.3,17.4Zm12,0a3,3,0,0,0,6,0C86.3,13.44,80.3,13.43,80.3,17.4Zm-36,0a3,3,0,1,0,6,0C50.3,13.44,44.3,13.43,44.3,17.4Zm24,90a3,3,0,1,0-6,0C62.3,111.37,68.3,111.37,68.3,107.4Zm18,0a3,3,0,0,0-6,0C80.3,111.37,86.3,111.37,86.3,107.4Zm-36,0a3,3,0,0,0-6,0C44.3,111.37,50.3,111.37,50.3,107.4Zm63-45a3,3,0,1,0-6,0C107.3,66.37,113.3,66.37,113.3,62.4Zm0,18a3,3,0,0,0-6,0C107.3,84.37,113.3,84.37,113.3,80.4Zm0-36c0-4-6-4-6,0S113.3,48.37,113.3,44.4Zm-96,18c0,4,6,4,6,0a3,3,0,0,0-6,0Zm0,18c0,4,6,4,6,0a3,3,0,0,0-6,0Zm0-36c0,4,6,4,6,0a3,3,0,0,0-6,0Z"/><rect class="cls-2" height="68" rx="11.33" ry="11.33" width="68" x="31.3" y="28.4"/><rect class="cls-1" height="45.33" rx="5.67" ry="5.67" width="45.33" x="42.63" y="39.73"/><path class="cls-3" d="M79.7,41.93h-34A6.67,6.67,0,0,0,39,48.6v34a6.67,6.67,0,0,0,6.67,6.67h34a6.67,6.67,0,0,0,6.67-6.67v-34A6.67,6.67,0,0,0,79.7,41.93ZM84.37,82.6a4.67,4.67,0,0,1-4.67,4.67h-34A4.67,4.67,0,0,1,41,82.6v-34a4.67,4.67,0,0,1,4.67-4.67h34a4.67,4.67,0,0,1,4.67,4.67Z"/><path class="cls-3" d="M66.93,62.62A5.48,5.48,0,0,0,64.4,53V50.07a1,1,0,0,0-2,0v2.82H61.07V50.07a1,1,0,0,0-2,0v2.82H54.7a1,1,0,0,0,0,2h2.46V76.3H54.7a1,1,0,0,0,0,2h4.37v2.82a1,1,0,0,0,2,0V78.3H62.4v2.82a1,1,0,0,0,2,0V78.25C72.62,77.32,74.46,66.12,66.93,62.62Zm-3.45-7.73c4.6,0,4.6,7,0,7H59.16v-7ZM63.4,76.3H59.16V63.85h4.32A6.23,6.23,0,1,1,63.4,76.3Z"/><path class="cls-3" d="M62.7,24.6a4,4,0,1,0-4-4A4,4,0,0,0,62.7,24.6Zm2-4a2,2,0,0,1-4,0A2,2,0,0,1,64.7,20.6Z"/><path class="cls-3" d="M62.7,106.6a4,4,0,1,0,4,4A4,4,0,0,0,62.7,106.6Zm-2,4a2,2,0,0,1,4,0A2,2,0,0,1,60.7,110.6Z"/><path class="cls-3" d="M80.7,24.6a4,4,0,1,0-4-4A4,4,0,0,0,80.7,24.6Zm2-4a2,2,0,0,1-4,0A2,2,0,0,1,82.7,20.6Z"/><path class="cls-3" d="M80.7,106.6a4,4,0,1,0,4,4A4,4,0,0,0,80.7,106.6Zm0,6a2,2,0,0,1,0-4A2,2,0,0,1,80.7,112.6Z"/><path class="cls-3" d="M44.7,24.6a4,4,0,1,0-4-4A4,4,0,0,0,44.7,24.6Zm2-4a2,2,0,0,1-4,0A2,2,0,0,1,46.7,20.6Z"/><path class="cls-3" d="M44.7,106.6a4,4,0,1,0,4,4A4,4,0,0,0,44.7,106.6Zm0,6a2,2,0,0,1,0-4A2,2,0,0,1,44.7,112.6Z"/><path class="cls-3" d="M107.7,61.6a4,4,0,1,0,4,4A4,4,0,0,0,107.7,61.6Zm0,6a2,2,0,0,1,0-4A2,2,0,0,1,107.7,67.6Z"/><path class="cls-3" d="M17.7,61.6a4,4,0,1,0,4,4A4,4,0,0,0,17.7,61.6Zm0,6a2,2,0,0,1,0-4A2,2,0,0,1,17.7,67.6Z"/><path class="cls-3" d="M107.7,79.6a4,4,0,1,0,4,4A4,4,0,0,0,107.7,79.6Zm0,6a2,2,0,0,1,0-4A2,2,0,0,1,107.7,85.6Z"/><path class="cls-3" d="M17.7,79.6a4,4,0,1,0,4,4A4,4,0,0,0,17.7,79.6Zm0,6a2,2,0,0,1,0-4A2,2,0,0,1,17.7,85.6Z"/><path class="cls-3" d="M101.7,48.6a1,1,0,0,0,0-2h-4V42.93A12.35,12.35,0,0,0,85.37,30.6H81.7v-4a1,1,0,0,0-2,0v4h-16v-4a1,1,0,0,0-2,0v4h-16v-4a1,1,0,0,0-2,0v4H40A12.35,12.35,0,0,0,27.7,42.93V46.6h-4a1,1,0,0,0,0,2h4v16h-4a1,1,0,0,0,0,2h4v16h-4a1,1,0,0,0,0,2h4v3.67A12.35,12.35,0,0,0,40,100.6H43.7v4a1,1,0,0,0,2,0v-4h16v4a1,1,0,0,0,2,0v-4h16v4a1,1,0,0,0,2,0v-4h3.67A12.35,12.35,0,0,0,97.7,88.27V84.6h4a1,1,0,0,0,0-2h-4v-16h4a1,1,0,0,0,0-2h-4v-16Zm-6,39.67A10.34,10.34,0,0,1,85.37,98.6H40A10.35,10.35,0,0,1,29.7,88.27V42.93A10.34,10.34,0,0,1,40,32.6H85.37A10.34,10.34,0,0,1,95.7,42.93Z"/><path class="cls-3" d="M107.7,51.6a4,4,0,1,0-4-4A4,4,0,0,0,107.7,51.6Zm0-6a2,2,0,0,1,0,4A2,2,0,0,1,107.7,45.6Z"/><path class="cls-3" d="M17.7,43.6a4,4,0,1,0,4,4A4,4,0,0,0,17.7,43.6Zm0,6a2,2,0,0,1,0-4A2,2,0,0,1,17.7,49.6Z"/></g></svg>